<svg xmlns="http://www.w3.org/2000/svg" xmlns:svg="http://www.w3.org/2000/svg" xmlns:xlink="http://www.w3.org/1999/xlink" id="svg2" width="64" height="64" version="1.1"><defs id="defs4"><linearGradient id="linearGradient4274"><stop id="stop4276" offset="0" style="stop-color:#9e1616;stop-opacity:1"/><stop id="stop4278" offset="1" style="stop-color:#873f43;stop-opacity:1"/></linearGradient><linearGradient id="linearGradient4266"><stop id="stop4268" offset="0" style="stop-color:#e15d69;stop-opacity:1"/><stop id="stop4270" offset="1" style="stop-color:#ff1f23;stop-opacity:1"/></linearGradient><linearGradient id="linearGradient4258"><stop id="stop4260" offset="0" style="stop-color:#ce6065;stop-opacity:1"/><stop id="stop4262" offset="1" style="stop-color:#e72f31;stop-opacity:1"/></linearGradient><filter id="filter4113" width="1.296" height="1.238" x="-.148" y="-.119"><feGaussianBlur id="feGaussianBlur4115" stdDeviation="1.457"/></filter><filter id="filter4175" width="1.442" height="1.295" x="-.221" y="-.147"><feGaussianBlur id="feGaussianBlur4177" stdDeviation=".654"/></filter><filter id="filter4179" width="1.383" height="1.28" x="-.192" y="-.14"><feGaussianBlur id="feGaussianBlur4181" stdDeviation=".654"/></filter><filter id="filter4183" width="1.367" height="1.281" x="-.184" y="-.14"><feGaussianBlur id="feGaussianBlur4185" stdDeviation=".654"/></filter><filter id="filter4187" width="1.371" height="1.255" x="-.186" y="-.127"><feGaussianBlur id="feGaussianBlur4189" stdDeviation=".654"/></filter><filter id="filter4244"><feGaussianBlur id="feGaussianBlur4246" stdDeviation=".32"/></filter><linearGradient id="linearGradient4264" x1="0" x2="32" y1="16" y2="16" gradientUnits="userSpaceOnUse" xlink:href="#linearGradient4258"/><linearGradient id="linearGradient4272" x1="0" x2="32" y1="48" y2="48" gradientUnits="userSpaceOnUse" xlink:href="#linearGradient4266"/><linearGradient id="linearGradient4280" x1="32" x2="64" y1="48" y2="48" gradientUnits="userSpaceOnUse" xlink:href="#linearGradient4274"/><filter id="filter3829" width="1.289" height="1.247" x="-.145" y="-.123"><feGaussianBlur id="feGaussianBlur3831" stdDeviation="1.372"/></filter><filter id="filter3826" width="1.338" height="1.216" x="-.169" y="-.108"><feGaussianBlur id="feGaussianBlur3828" stdDeviation="1.205"/></filter><filter id="filter3853" width="1.343" height="1.215" x="-.171" y="-.107"><feGaussianBlur id="feGaussianBlur3855" stdDeviation="1.15"/></filter><filter id="filter3861" width="1.286" height="1.245" x="-.143" y="-.123"><feGaussianBlur id="feGaussianBlur3863" stdDeviation="1.351"/></filter></defs><metadata id="metadata7"/><g style="display:inline" id="layer2"><rect style="fill:url(#linearGradient4264);fill-opacity:1;stroke:none" id="rect3816" width="32" height="32" x="0" y="0"/><rect style="fill:url(#linearGradient4280);fill-opacity:1;stroke:none" id="rect3814" width="32" height="32" x="32" y="32"/><rect id="rect3812" width="32" height="32" x="0" y="32" style="fill:url(#linearGradient4272);fill-opacity:1;stroke:none"/><rect id="rect4125" width="16" height="16" x="32" y="16" style="fill:brown;fill-opacity:1;stroke:none"/><rect style="fill:#af3131;fill-opacity:1;stroke:none" id="rect4207" width="16" height="16" x="32" y="0"/><rect id="rect4209" width="16" height="16" x="48" y="0" style="fill:#8c192e;fill-opacity:1;stroke:none"/><rect style="fill:#872725;fill-opacity:1;stroke:none" id="rect4211" width="16" height="16" x="48" y="16"/></g><g style="display:inline" id="layer3"><path id="text3944" d="m 43.190832,33.91902 c -4.842809,1.5131 -1.559617,8.2775 -2.302463,11.8742 1.160535,5.3886 -1.323955,12.69 2.833713,17.0321 6.246078,1.5555 13.115939,-0.7041 18.90625,-3.0937 3.92474,-2.5347 -0.638184,-8.1229 -4.3164,-5.7053 -3.226208,0.6884 -6.664278,1.6664 -9.7461,2.0177 -1.319778,-6.815 -2.377443,-13.996404 -2.5,-20.875 -0.6925,-0.8282 -1.777386,-1.4295 -2.875,-1.25 z" style="font-size:32px;font-style:normal;font-variant:normal;font-weight:700;font-stretch:normal;line-height:125%;letter-spacing:0;word-spacing:0;opacity:.6;fill:#000;fill-opacity:1;stroke:none;filter:url(#filter4113);font-family:Purisa;-inkscape-font-specification:Purisa Bold"/><path id="rect3034" d="m 30.757614,0.75761442 0,29.99999958 -29.99999958,0 0,4 29.99999958,0 0,30 4,0 0,-15 13,0 0,15 2,0 0,-15 15,0 0,-2 -15,0 0,-13 15,0 0,-4 -30,0 0,-29.99999958 -4,0 z m 4,33.99999958 13,0 0,13 -13,0 0,-13 z" transform="matrix(1,0,0,-1,0,65.515228)" style="opacity:.4;fill:#000;fill-opacity:1;stroke:none;filter:url(#filter4244)"/><text style="font-size:14px;font-style:normal;font-variant:normal;font-weight:700;font-stretch:normal;line-height:125%;letter-spacing:0;word-spacing:0;fill:#000;fill-opacity:1;stroke:none;filter:url(#filter4187);font-family:Purisa;-inkscape-font-specification:Purisa Bold" id="text4127" x="34.959" y="13.243" xml:space="preserve"><tspan id="tspan4129" x="34.959" y="13.243">P</tspan></text><text id="text4131" x="50.825" y="13.243" xml:space="preserve" style="font-size:14px;font-style:normal;font-variant:normal;font-weight:700;font-stretch:normal;line-height:125%;letter-spacing:0;word-spacing:0;fill:#000;fill-opacity:1;stroke:none;filter:url(#filter4183);font-family:Purisa;-inkscape-font-specification:Purisa Bold"><tspan id="tspan4133" x="50.825" y="13.243">L</tspan></text><text id="text4135" x="34.87" y="28.833" xml:space="preserve" style="font-size:14px;font-style:normal;font-variant:normal;font-weight:700;font-stretch:normal;line-height:125%;letter-spacing:0;word-spacing:0;fill:#000;fill-opacity:1;stroke:none;filter:url(#filter4179);font-family:Purisa;-inkscape-font-specification:Purisa Bold"><tspan id="tspan4137" x="34.87" y="28.833">U</tspan></text><text style="font-size:14px;font-style:normal;font-variant:normal;font-weight:700;font-stretch:normal;line-height:125%;letter-spacing:0;word-spacing:0;fill:#000;fill-opacity:1;stroke:none;filter:url(#filter4175);font-family:Purisa;-inkscape-font-specification:Purisa Bold" id="text4139" x="50.682" y="29.064" xml:space="preserve"><tspan id="tspan4141" x="50.682" y="29.064">S</tspan></text><g id="text3820" transform="matrix(0.99941921,0.03407689,-0.03407689,0.99941921,0.55377863,-0.53416104)" style="font-size:32px;font-style:normal;font-variant:normal;font-weight:700;font-stretch:normal;line-height:125%;letter-spacing:0;word-spacing:0;opacity:.6;fill:#000;fill-opacity:1;stroke:#000;stroke-opacity:1;display:inline;filter:url(#filter3853);font-family:Purisa;-inkscape-font-specification:Purisa Bold"><path id="path3831" d="M 16.721212,0.86314197 C 12.499756,1.3480358 7.2863453,2.2785853 4.658712,5.769392 c -1.3201365,7.024238 0.736416,14.485633 0.96875,21.59375 1.9055264,5.311031 9.204564,2.814075 13.25,1.75 3.515636,-0.530273 7.680566,-5.037724 3.625,-7.84375 -3.422917,-1.69896 -7.281627,3.096147 -10.34375,1.6875 -1.324722,-4.7531 5.52251,-2.655652 8,-5 3.841125,-2.294365 -0.166165,-7.456265 -3.75,-5.59375 -3.37717,1.281394 -6.287077,1.049112 -4.96875,-3.15625 3.471445,-2.411021 10.651988,-0.2667671 11.75,-5.25 C 22.92245,0.84738687 19.117208,0.66773464 16.721212,0.86314197 z"/></g><g id="text3857" transform="translate(-1.9445437,-989.59964)" style="font-size:32px;font-style:oblique;font-variant:normal;font-weight:700;font-stretch:normal;line-height:125%;letter-spacing:0;word-spacing:0;opacity:.6;fill:#000;fill-opacity:1;stroke:#000;stroke-opacity:1;display:inline;filter:url(#filter3861);font-family:Purisa;-inkscape-font-specification:Purisa Bold Oblique"><path id="path3866" d="m 24.843747,1023.5478 c -10.320436,3.3517 -20.4367134,12.8283 -19.249997,24.5937 1.1397225,6.9174 10.667445,5.1395 14.312497,1.5 -0.01937,4.9796 7.336372,3.7859 7.25,-0.6562 0.523417,-4.5127 3.487734,-11.8012 -1.75,-14.4688 -1.502066,-0.7077 -4.751352,-0.7125 -5.40625,-1.0937 2.074846,-1.7102 4.464041,-3.0657 6.78125,-1.375 5.985067,-0.8688 5.901428,-9.243 -1.9375,-8.5 z m -10.78125,16.8437 c 1.29758,2.0884 6.583766,1.005 2.4375,3.625 -1.37489,1.4781 -5.578576,2.9412 -3.46875,-0.9687 0.252851,-0.4984 0.44744,-3.2173 1.03125,-2.6563 z"/></g></g><g style="display:inline" id="layer1" transform="translate(0,-988.36218)"><text id="text2987" x="3.964" y="1015.737" xml:space="preserve" style="font-size:32px;font-style:normal;font-variant:normal;font-weight:700;font-stretch:normal;line-height:125%;letter-spacing:0;word-spacing:0;fill:#fff;fill-opacity:1;stroke:#000;stroke-opacity:1;font-family:Purisa;-inkscape-font-specification:Purisa Bold"><tspan id="tspan2989" x="3.964" y="1015.737">E</tspan></text><text id="text2991" x="1.911" y="1049.989" xml:space="preserve" style="font-size:32px;font-style:oblique;font-variant:normal;font-weight:700;font-stretch:normal;line-height:125%;letter-spacing:0;word-spacing:0;fill:#fff;fill-opacity:1;stroke:#000;stroke-opacity:1;font-family:Purisa;-inkscape-font-specification:Purisa Bold Oblique"><tspan id="tspan2993" x="1.911" y="1049.989">G</tspan></text><text id="text2995" x="38.321" y="1049.47" xml:space="preserve" style="font-size:32px;font-style:oblique;font-variant:normal;font-weight:700;font-stretch:normal;line-height:125%;letter-spacing:0;word-spacing:0;fill:#fff;fill-opacity:1;stroke:#000;stroke-opacity:1;font-family:Purisa;-inkscape-font-specification:Purisa Bold Oblique"><tspan id="tspan2997" x="38.321" y="1049.47">L</tspan></text><text id="text2999" x="34.58" y="1001.478" xml:space="preserve" style="font-size:14px;font-style:oblique;font-variant:normal;font-weight:700;font-stretch:normal;line-height:125%;letter-spacing:0;word-spacing:0;fill:#fff;fill-opacity:1;stroke:#000;stroke-width:.2;stroke-miterlimit:4;stroke-opacity:1;stroke-dasharray:none;font-family:Purisa;-inkscape-font-specification:Purisa Bold Oblique"><tspan id="tspan3001" x="34.58" y="1001.478">P</tspan></text><text style="font-size:14px;font-style:oblique;font-variant:normal;font-weight:700;font-stretch:normal;line-height:125%;letter-spacing:0;word-spacing:0;fill:#fff;fill-opacity:1;stroke:#000;stroke-width:.2;stroke-miterlimit:4;stroke-opacity:1;stroke-dasharray:none;font-family:Purisa;-inkscape-font-specification:Purisa Bold Oblique" id="text3003" x="50.446" y="1001.478" xml:space="preserve"><tspan id="tspan3005" x="50.446" y="1001.478">L</tspan></text><text style="font-size:14px;font-style:oblique;font-variant:normal;font-weight:700;font-stretch:normal;line-height:125%;letter-spacing:0;word-spacing:0;fill:#fff;fill-opacity:1;stroke:#000;stroke-width:.2;stroke-miterlimit:4;stroke-opacity:1;stroke-dasharray:none;font-family:Purisa;-inkscape-font-specification:Purisa Bold Oblique" id="text3007" x="34.491" y="1017.069" xml:space="preserve"><tspan id="tspan3009" x="34.491" y="1017.069">U</tspan></text><text id="text3011" x="50.304" y="1017.3" xml:space="preserve" style="font-size:14px;font-style:oblique;font-variant:normal;font-weight:700;font-stretch:normal;line-height:125%;letter-spacing:0;word-spacing:0;fill:#fff;fill-opacity:1;stroke:#000;stroke-width:.2;stroke-miterlimit:4;stroke-opacity:1;stroke-dasharray:none;font-family:Purisa;-inkscape-font-specification:Purisa Bold Oblique"><tspan id="tspan3013" x="50.304" y="1017.3">S</tspan></text><path style="fill:#0d0d0d;fill-opacity:1;stroke:none" id="path4213" d="m 30,1052.3622 0,-30 -30,0 0,-4 30,0 0,-30.00002 4,0 0,15.00002 13,0 0,-15.00002 2,0 0,15.00002 15,0 0,2 -15,0 0,13 15,0 0,4 -30,0 0,30 -4,0 z m 4,-34 13,0 0,-13 -13,0 0,13 z"/></g></svg>