<svg xmlns="http://www.w3.org/2000/svg" xmlns:svg="http://www.w3.org/2000/svg" xmlns:xlink="http://www.w3.org/1999/xlink" id="svg2" width="64" height="64" version="1.1"><defs id="defs4"><linearGradient id="linearGradient4274"><stop style="stop-color:#1f79ff;stop-opacity:1" id="stop4276" offset="0"/><stop style="stop-color:#3b30ef;stop-opacity:1" id="stop4278" offset="1"/></linearGradient><linearGradient id="linearGradient4266"><stop style="stop-color:#96b5ee;stop-opacity:1" id="stop4268" offset="0"/><stop style="stop-color:#00a1ff;stop-opacity:1" id="stop4270" offset="1"/></linearGradient><linearGradient id="linearGradient4258"><stop style="stop-color:#7a90ff;stop-opacity:1" id="stop4260" offset="0"/><stop style="stop-color:#3f45ff;stop-opacity:1" id="stop4262" offset="1"/></linearGradient><filter id="filter4113" width="1.296" height="1.238" x="-.148" y="-.119"><feGaussianBlur id="feGaussianBlur4115" stdDeviation="1.457"/></filter><filter id="filter4117" width="1.307" height="1.237" x="-.153" y="-.119"><feGaussianBlur id="feGaussianBlur4119" stdDeviation="1.457"/></filter><filter id="filter4121" width="1.302" height="1.236" x="-.151" y="-.118"><feGaussianBlur id="feGaussianBlur4123" stdDeviation="1.457"/></filter><filter id="filter4175" width="1.442" height="1.295" x="-.221" y="-.147"><feGaussianBlur id="feGaussianBlur4177" stdDeviation=".654"/></filter><filter id="filter4179" width="1.383" height="1.28" x="-.192" y="-.14"><feGaussianBlur id="feGaussianBlur4181" stdDeviation=".654"/></filter><filter id="filter4183" width="1.367" height="1.281" x="-.184" y="-.14"><feGaussianBlur id="feGaussianBlur4185" stdDeviation=".654"/></filter><filter id="filter4187" width="1.371" height="1.255" x="-.186" y="-.127"><feGaussianBlur id="feGaussianBlur4189" stdDeviation=".654"/></filter><filter id="filter4244"><feGaussianBlur id="feGaussianBlur4246" stdDeviation=".32"/></filter><linearGradient id="linearGradient4264" x1="0" x2="32" y1="16" y2="16" gradientUnits="userSpaceOnUse" xlink:href="#linearGradient4258"/><linearGradient id="linearGradient4272" x1="0" x2="32" y1="48" y2="48" gradientUnits="userSpaceOnUse" xlink:href="#linearGradient4266"/><linearGradient id="linearGradient4280" x1="32" x2="64" y1="48" y2="48" gradientUnits="userSpaceOnUse" xlink:href="#linearGradient4274"/></defs><metadata id="metadata7"/><g id="layer2" style="display:inline"><rect id="rect3816" width="32" height="32" x="0" y="0" style="fill:url(#linearGradient4264);fill-opacity:1;stroke:none"/><rect id="rect3814" width="32" height="32" x="32" y="32" style="fill:url(#linearGradient4280);fill-opacity:1;stroke:none"/><rect style="fill:url(#linearGradient4272);fill-opacity:1;stroke:none" id="rect3812" width="32" height="32" x="0" y="32"/><rect style="fill:#1667da;fill-opacity:1;stroke:none" id="rect4125" width="16" height="16" x="32" y="16"/><rect id="rect4207" width="16" height="16" x="32" y="0" style="fill:#5654df;fill-opacity:1;stroke:none"/><rect style="fill:#351ad6;fill-opacity:1;stroke:none" id="rect4209" width="16" height="16" x="48" y="0"/><rect id="rect4211" width="16" height="16" x="48" y="16" style="fill:#4d4ae9;fill-opacity:1;stroke:none"/></g><g id="layer3" style="display:inline"><path style="font-size:32px;font-style:normal;font-variant:normal;font-weight:700;font-stretch:normal;line-height:125%;letter-spacing:0;word-spacing:0;opacity:.6;fill:#000;fill-opacity:1;stroke:none;filter:url(#filter4121);font-family:Purisa;-inkscape-font-specification:Purisa Bold" id="text3936" d="m 19.869924,2.66907 c -3.995749,1.64869 -7.970415,3.40097 -11.1250004,6.625 -5.8838425,6.90475 -3.7693786,20.65225 5.7500004,22.90625 8.607529,1.2747 12.98118,-7.768 13.75,-14.7813 1.257334,-5.8122 -0.67799,-15.38023 -8.375,-14.74995 z m 0.6875,7.90625 c 2.89661,2.92371 -0.0056,7.2486 -0.53125,10.6875 -0.75238,2.7322 -4.7869,5.9134 -6.125,1.9375 -3.117015,-5.0849 0.393013,-12.87601 6.65625,-12.625 z"/><path style="font-size:32px;font-style:normal;font-variant:normal;font-weight:700;font-stretch:normal;line-height:125%;letter-spacing:0;word-spacing:0;opacity:.6;fill:#000;fill-opacity:1;stroke:none;filter:url(#filter4117);font-family:Purisa;-inkscape-font-specification:Purisa Bold" id="text3940" d="m 18.978902,34.346893 c -8.619229,2.89649 -16.2349617,11.16749 -15.3124987,20.875 -0.323364,5.3308 4.590605,10.0367 9.8749987,8.1563 2.631439,0.1789 5.602585,-5.1139 6.15625,-1.25 2.189655,3.7242 7.682863,0.5357 6.53125,-3.3438 -0.206658,-4.8701 0.429925,-13.31147 -6.21875,-13.9375 -1.464098,-0.85015 -6.706529,0.42085 -3.34375,-1.625 1.90997,-2.0588 3.438791,-1.10017 5.5625,-0.375 4.433316,-0.57199 4.428895,-7.70027 -0.1875,-8.1875 -0.976944,-0.34699 -2.032582,-0.40677 -3.0625,-0.3125 z m -7.843749,16.875 c 1.084905,2.339 7.250115,0.5245 3.749999,3.5313 -1.118995,1.7137 -5.0217832,2.8572 -4.031249,-0.5313 0.182035,-0.3254 -0.290516,-3.472 0.28125,-3 z"/><path style="font-size:32px;font-style:normal;font-variant:normal;font-weight:700;font-stretch:normal;line-height:125%;letter-spacing:0;word-spacing:0;opacity:.6;fill:#000;fill-opacity:1;stroke:none;filter:url(#filter4113);font-family:Purisa;-inkscape-font-specification:Purisa Bold" id="text3944" d="m 43.190832,33.91902 c -4.842809,1.5131 -1.559617,8.2775 -2.302463,11.8742 1.160535,5.3886 -1.323955,12.69 2.833713,17.0321 6.246078,1.5555 13.115939,-0.7041 18.90625,-3.0937 3.92474,-2.5347 -0.638184,-8.1229 -4.3164,-5.7053 -3.226208,0.6884 -6.664278,1.6664 -9.7461,2.0177 -1.319778,-6.815 0.492038,-14.5703 -2.5,-20.875 -0.6925,-0.8282 -1.777386,-1.4295 -2.875,-1.25 z"/><path style="opacity:.4;fill:#000;fill-opacity:1;stroke:none;filter:url(#filter4244)" id="rect3034" d="m 30.757614,0.75761442 0,29.99999958 -29.99999958,0 0,4 29.99999958,0 0,30 4,0 0,-15 13,0 0,15 2,0 0,-15 15,0 0,-2 -15,0 0,-13 15,0 0,-4 -30,0 0,-29.99999958 -4,0 z m 4,33.99999958 13,0 0,13 -13,0 0,-13 z" transform="matrix(1,0,0,-1,0,65.515228)"/><text id="text4127" x="34.959" y="13.243" xml:space="preserve" style="font-size:14px;font-style:normal;font-variant:normal;font-weight:700;font-stretch:normal;line-height:125%;letter-spacing:0;word-spacing:0;fill:#000;fill-opacity:1;stroke:none;filter:url(#filter4187);font-family:Purisa;-inkscape-font-specification:Purisa Bold"><tspan id="tspan4129" x="34.959" y="13.243">P</tspan></text><text style="font-size:14px;font-style:normal;font-variant:normal;font-weight:700;font-stretch:normal;line-height:125%;letter-spacing:0;word-spacing:0;fill:#000;fill-opacity:1;stroke:none;filter:url(#filter4183);font-family:Purisa;-inkscape-font-specification:Purisa Bold" id="text4131" x="50.825" y="13.243" xml:space="preserve"><tspan id="tspan4133" x="50.825" y="13.243">L</tspan></text><text style="font-size:14px;font-style:normal;font-variant:normal;font-weight:700;font-stretch:normal;line-height:125%;letter-spacing:0;word-spacing:0;fill:#000;fill-opacity:1;stroke:none;filter:url(#filter4179);font-family:Purisa;-inkscape-font-specification:Purisa Bold" id="text4135" x="34.87" y="28.833" xml:space="preserve"><tspan id="tspan4137" x="34.87" y="28.833">U</tspan></text><text id="text4139" x="50.682" y="29.064" xml:space="preserve" style="font-size:14px;font-style:normal;font-variant:normal;font-weight:700;font-stretch:normal;line-height:125%;letter-spacing:0;word-spacing:0;fill:#000;fill-opacity:1;stroke:none;filter:url(#filter4175);font-family:Purisa;-inkscape-font-specification:Purisa Bold"><tspan id="tspan4141" x="50.682" y="29.064">S</tspan></text></g><g id="layer1" transform="translate(0,-988.36218)"><text style="font-size:32px;font-style:normal;font-variant:normal;font-weight:700;font-stretch:normal;line-height:125%;letter-spacing:0;word-spacing:0;fill:#fff;fill-opacity:1;stroke:#000;stroke-opacity:1;font-family:Purisa;-inkscape-font-specification:Purisa Bold" id="text2987" x="3.964" y="1015.737" xml:space="preserve"><tspan id="tspan2989" x="3.964" y="1015.737">O</tspan></text><text style="font-size:32px;font-style:oblique;font-variant:normal;font-weight:700;font-stretch:normal;line-height:125%;letter-spacing:0;word-spacing:0;fill:#fff;fill-opacity:1;stroke:#000;stroke-opacity:1;font-family:Purisa;-inkscape-font-specification:Purisa Bold Oblique" id="text2991" x="1.911" y="1049.989" xml:space="preserve"><tspan id="tspan2993" x="1.911" y="1049.989">G</tspan></text><text style="font-size:32px;font-style:oblique;font-variant:normal;font-weight:700;font-stretch:normal;line-height:125%;letter-spacing:0;word-spacing:0;fill:#fff;fill-opacity:1;stroke:#000;stroke-opacity:1;font-family:Purisa;-inkscape-font-specification:Purisa Bold Oblique" id="text2995" x="38.321" y="1049.47" xml:space="preserve"><tspan id="tspan2997" x="38.321" y="1049.47">L</tspan></text><text style="font-size:14px;font-style:oblique;font-variant:normal;font-weight:700;font-stretch:normal;line-height:125%;letter-spacing:0;word-spacing:0;fill:#fff;fill-opacity:1;stroke:#000;stroke-width:.2;stroke-miterlimit:4;stroke-opacity:1;stroke-dasharray:none;font-family:Purisa;-inkscape-font-specification:Purisa Bold Oblique" id="text2999" x="34.58" y="1001.478" xml:space="preserve"><tspan id="tspan3001" x="34.58" y="1001.478">P</tspan></text><text id="text3003" x="50.446" y="1001.478" xml:space="preserve" style="font-size:14px;font-style:oblique;font-variant:normal;font-weight:700;font-stretch:normal;line-height:125%;letter-spacing:0;word-spacing:0;fill:#fff;fill-opacity:1;stroke:#000;stroke-width:.2;stroke-miterlimit:4;stroke-opacity:1;stroke-dasharray:none;font-family:Purisa;-inkscape-font-specification:Purisa Bold Oblique"><tspan id="tspan3005" x="50.446" y="1001.478">L</tspan></text><text id="text3007" x="34.491" y="1017.069" xml:space="preserve" style="font-size:14px;font-style:oblique;font-variant:normal;font-weight:700;font-stretch:normal;line-height:125%;letter-spacing:0;word-spacing:0;fill:#fff;fill-opacity:1;stroke:#000;stroke-width:.2;stroke-miterlimit:4;stroke-opacity:1;stroke-dasharray:none;font-family:Purisa;-inkscape-font-specification:Purisa Bold Oblique"><tspan id="tspan3009" x="34.491" y="1017.069">U</tspan></text><text style="font-size:14px;font-style:oblique;font-variant:normal;font-weight:700;font-stretch:normal;line-height:125%;letter-spacing:0;word-spacing:0;fill:#fff;fill-opacity:1;stroke:#000;stroke-width:.2;stroke-miterlimit:4;stroke-opacity:1;stroke-dasharray:none;font-family:Purisa;-inkscape-font-specification:Purisa Bold Oblique" id="text3011" x="50.304" y="1017.3" xml:space="preserve"><tspan id="tspan3013" x="50.304" y="1017.3">S</tspan></text><path id="path4213" d="m 30,1052.3622 0,-30 -30,0 0,-4 30,0 0,-30.00002 4,0 0,15.00002 13,0 0,-15.00002 2,0 0,15.00002 15,0 0,2 -15,0 0,13 15,0 0,4 -30,0 0,30 -4,0 z m 4,-34 13,0 0,-13 -13,0 0,13 z" style="fill:#0d0d0d;fill-opacity:1;stroke:none"/></g></svg>