<svg xmlns="http://www.w3.org/2000/svg" xmlns:svg="http://www.w3.org/2000/svg" xmlns:xlink="http://www.w3.org/1999/xlink" id="svg2" width="24" height="14" version="1.1"><defs id="defs4"><linearGradient id="linearGradient3781"><stop style="stop-color:#4568b7;stop-opacity:1" id="stop3783" offset="0"/><stop style="stop-color:#9ab2d7;stop-opacity:1" id="stop3785" offset="1"/></linearGradient><linearGradient id="linearGradient3804" x1=".5" x2="17.5" y1="6" y2="6" gradientTransform="translate(0,2)" gradientUnits="userSpaceOnUse" xlink:href="#linearGradient3781"/><linearGradient id="linearGradient4497" x1=".554" x2="23.446" y1="5.022" y2="5.022" gradientUnits="userSpaceOnUse" xlink:href="#linearGradient3781"/></defs><metadata id="metadata7"/><g id="layer1" transform="translate(0,-1038.3622)"><path style="fill:url(#linearGradient4497);stroke:none;stroke-width:1;stroke-linecap:round;stroke-linejoin:miter;stroke-miterlimit:2;stroke-opacity:1;stroke-dashoffset:0;fill-opacity:1" id="path4489" d="m 4,-1.4464286 14.044643,0 c 3.910569,1.46951303 5.049065,4.9166412 5.401786,6.2946429 0,1.662 -3.739786,6.6428567 -5.401786,6.6428567 l -14.4910716,0 C 1.8915714,11.491071 0.55357143,9.662 0.55357143,8 l 0,-6 C 0.55357143,0.338 2.338,-1.4464286 4,-1.4464286 z" transform="translate(0,1040.3622)"/><text style="font-size:16px;font-style:normal;font-variant:normal;font-weight:400;font-stretch:normal;line-height:125%;letter-spacing:0;word-spacing:0;fill:#000;fill-opacity:1;stroke:#000;stroke-width:2.5;stroke-miterlimit:4;stroke-opacity:1;stroke-dasharray:none;font-family:Garuda;-inkscape-font-specification:Garuda" id="text4536" x="7.161" y="1050.156" xml:space="preserve"><tspan id="tspan4538" x="7.161" y="1050.156" style="font-style:normal;font-variant:normal;font-weight:700;font-stretch:normal;stroke:#000;stroke-width:2.5;stroke-miterlimit:4;stroke-opacity:1;stroke-dasharray:none;font-family:Purisa;-inkscape-font-specification:Purisa Bold">7</tspan></text><text id="text4540" x="7.161" y="1050.156" xml:space="preserve" style="font-size:16px;font-style:normal;font-variant:normal;font-weight:400;font-stretch:normal;line-height:125%;letter-spacing:0;word-spacing:0;fill:#fff;fill-opacity:1;stroke:#fff;stroke-width:.5;stroke-miterlimit:4;stroke-opacity:1;stroke-dasharray:none;font-family:Garuda;-inkscape-font-specification:Garuda"><tspan style="font-style:normal;font-variant:normal;font-weight:700;font-stretch:normal;fill:#fff;fill-opacity:1;stroke:#fff;stroke-width:.5;stroke-miterlimit:4;stroke-opacity:1;stroke-dasharray:none;font-family:Purisa;-inkscape-font-specification:Purisa Bold" id="tspan4542" x="7.161" y="1050.156">7</tspan></text><path style="fill:#fff;fill-opacity:.1882353;stroke:none;stroke-width:.5;stroke-linecap:round;stroke-linejoin:miter;stroke-miterlimit:4;stroke-opacity:1;stroke-dasharray:none;stroke-dashoffset:0" id="path4544" d="M 12 6 C 7.8104981 6 3.895493 6.2567877 0.5625 6.71875 L 0.5625 10 C 0.5625 11.662 1.9005 13.5 3.5625 13.5 L 18.03125 13.5 C 19.69325 13.5 23.4375 8.50575 23.4375 6.84375 C 23.428248 6.8076042 23.416619 6.75767 23.40625 6.71875 C 20.079917 6.2594025 16.176653 6 12 6 z" transform="translate(0,1038.3622)"/><path id="path3807" d="m 4,-1.4464286 14.044643,0 c 3.910569,1.46951303 5.049065,4.9166412 5.401786,6.2946429 0,1.662 -3.739786,6.6428567 -5.401786,6.6428567 l -14.4910716,0 C 1.8915714,11.491071 0.55357143,9.662 0.55357143,8 l 0,-6 C 0.55357143,0.338 2.338,-1.4464286 4,-1.4464286 z" transform="translate(0,1040.3622)" style="fill:none;stroke:#000;stroke-width:1;stroke-linecap:round;stroke-linejoin:miter;stroke-miterlimit:2;stroke-opacity:1;stroke-dashoffset:0"/></g></svg>