<svg xmlns="http://www.w3.org/2000/svg" xmlns:svg="http://www.w3.org/2000/svg" xmlns:xlink="http://www.w3.org/1999/xlink" id="svg2" width="32" height="32" version="1.1"><defs id="defs4"><linearGradient id="linearGradient3844"><stop style="stop-color:#fff;stop-opacity:.25098041" id="stop3846" offset="0"/><stop style="stop-color:#fff;stop-opacity:.1254902" id="stop3848" offset="1"/></linearGradient><linearGradient id="linearGradient3815"><stop id="stop3817" offset="0" style="stop-color:#505ac6;stop-opacity:1"/><stop id="stop3819" offset="1" style="stop-color:#9895d0;stop-opacity:1"/></linearGradient><linearGradient id="linearGradient3778"><stop style="stop-color:#3740a9;stop-opacity:1" id="stop3780" offset="0"/><stop style="stop-color:#7975c1;stop-opacity:1" id="stop3782" offset="1"/></linearGradient><linearGradient id="linearGradient3784" x1="2" x2="30" y1="16" y2="16" gradientUnits="userSpaceOnUse" xlink:href="#linearGradient3778"/><filter id="filter3801"><feGaussianBlur id="feGaussianBlur3803" stdDeviation=".3"/></filter><linearGradient id="linearGradient3813" x1="2" x2="30" y1="16" y2="16" gradientUnits="userSpaceOnUse" xlink:href="#linearGradient3815"/><filter id="filter3833"><feGaussianBlur id="feGaussianBlur3835" stdDeviation=".75"/></filter><linearGradient id="linearGradient3850" x1="16" x2="16" y1="12" y2="30" gradientUnits="userSpaceOnUse" xlink:href="#linearGradient3844"/><filter id="filter3863"><feGaussianBlur id="feGaussianBlur3865" stdDeviation=".182"/></filter><filter id="filter3885"><feGaussianBlur id="feGaussianBlur3887" stdDeviation=".758"/></filter><filter id="filter3899"><feGaussianBlur id="feGaussianBlur3901" stdDeviation=".42"/></filter></defs><metadata id="metadata7"/><g id="layer1" transform="translate(0,-1020.3622)"><rect style="fill:url(#linearGradient3784);fill-opacity:1;stroke:none" id="background1" width="28" height="28" x="2" y="2" transform="translate(0,1020.3622)"/><rect id="background2" width="25" height="25" x="4" y="4" ry="3" transform="translate(0,1020.3622)" style="fill:url(#linearGradient3813);fill-opacity:1;stroke:none;filter:url(#filter3833)"/><path id="arrow-glow-in" d="m 22,1036.3622 -6,-6 0,4 -6,0 0,4 6,0 0,4 z" style="fill:#f0f0f0;fill-opacity:.94117647;stroke:none;filter:url(#filter3899)"/><path style="fill:#000;fill-opacity:.25098039;stroke:none;filter:url(#filter3801)" id="shadow" d="M 1,1 1,31 3,31 3,3 31,3 31,1 1,1 z" transform="translate(0,1020.3622)"/><path style="fill:#000;fill-opacity:1;stroke:none" id="frame" d="M 1,0 C 0.446,0 0,0.446 0,1 l 0,30 c 0,0.554 0.446,1 1,1 l 30,0 c 0.554,0 1,-0.446 1,-1 L 32,1 C 32,0.446 31.554,0 31,0 L 1,0 z M 2,2 30,2 30,30 2,30 2,2 z" transform="translate(0,1020.3622)"/><path style="fill:#fff;fill-opacity:.18823529;stroke:none;filter:url(#filter3885)" id="arrow-glow-out" d="m 12,1030.3622 c -5,1 -7,1 -6,11 9.672827,-4.9021 3.8005193,12.4355 10.34375,4.5128 2.170245,-3.664 12.289095,-7.2903 9,-11 -3.852318,-2.7407 -9.724845,-9.9826 -12.34375,-9.9688 0,1.1563 -1,4.2997 -1,5.456 z"/><path style="fill:#e0e0e0;fill-opacity:.70588237;stroke:#000;stroke-width:1px;stroke-linecap:butt;stroke-linejoin:miter;stroke-opacity:1" id="arrow" d="m 24,1036.3622 -9,-8 0,5 -6,0 0,6 6,0 0,5 z"/><path style="fill:url(#linearGradient3850);fill-opacity:1;stroke:none" id="gloss1" d="M 16,12 C 10.766953,12 5.943893,12.859805 2,14.28125 L 2,30 30,30 30,14.28125 C 26.056107,12.859805 21.233047,12 16,12 z" transform="translate(0,1020.3622)"/><path style="fill:#fff;fill-opacity:.1882353;stroke:none;filter:url(#filter3863)" id="gloss2" d="m 28.902933,1037.895 c -0.08454,1.1014 -2.772946,-1.2158 -6.902933,-1.5328 -3.988268,-0.3061 -6.987474,-0.4315 -6.902933,-1.5328 0.08454,-1.1014 5.884472,-1.4718 9.902933,-0.4672 4,1 3.987474,2.4315 3.902933,3.5328 z"/></g></svg>