<svg xmlns="http://www.w3.org/2000/svg" xmlns:svg="http://www.w3.org/2000/svg" id="svg2" width="512" height="512" version="1.1"><defs id="defs4"><pattern id="Ermine" width="783.093" height="797.156" patternTransform="scale(0.06732711,0.03916818)" patternUnits="userSpaceOnUse"><g id="g2575"><path style="fill:#000;fill-opacity:1;fill-rule:evenodd;stroke:none;stroke-width:1;stroke-linecap:butt;stroke-linejoin:miter;stroke-miterlimit:4;stroke-opacity:1" id="path3042" d="M 566.875,361.31 C 529.023,361.31 498.281,392.05 498.281,429.90 C 498.281,467.75 529.023,498.46 566.875,498.46 C 604.726,498.46 635.437,467.75 635.437,429.90 C 635.437,392.05 604.726,361.31 566.875,361.31 z"/><path style="fill:#000;fill-opacity:1;fill-rule:evenodd;stroke:none;stroke-width:1;stroke-linecap:butt;stroke-linejoin:miter;stroke-miterlimit:4;stroke-opacity:1" id="path3052" d="M 177.156,0.34 C 139.304,0.34 108.593,31.05 108.593,68.90 C 108.593,106.75 139.304,137.5 177.156,137.5 C 215.007,137.5 245.718,106.75 245.718,68.90 C 245.718,31.05 215.007,0.34 177.156,0.34 z"/><path style="opacity:0;fill:#000;fill-opacity:1;fill-rule:evenodd;stroke:none;stroke-width:1;stroke-linecap:butt;stroke-linejoin:miter;stroke-miterlimit:4;stroke-opacity:1" id="path3050" d="M 783.093,117.93 C 780.736,124.86 779.437,132.27 779.437,140 C 779.437,147.71 780.739,155.13 783.093,162.06 L 783.093,117.93 z"/><path style="fill:#000;fill-opacity:1;fill-rule:evenodd;stroke:none;stroke-width:1;stroke-linecap:butt;stroke-linejoin:miter;stroke-miterlimit:4;stroke-opacity:1" id="path3048" d="M 285.718,140.78 C 247.867,140.78 217.156,171.49 217.156,209.34 C 217.156,247.19 247.867,277.90 285.718,277.90 C 323.570,277.90 354.281,247.19 354.281,209.34 C 354.281,171.49 323.570,140.78 285.718,140.78 z"/><path style="fill:#000;fill-opacity:1;fill-rule:evenodd;stroke:none;stroke-width:1;stroke-linecap:butt;stroke-linejoin:miter;stroke-miterlimit:4;stroke-opacity:1" id="path3044" d="M 161.375,165.06 C 144.552,433.12 73.284,537.85 28.593,722.31 L 126.687,653.71 L 180,722. L 233.312,653.65 L 325.687,722.21 C 273.529,536.18 207.547,433.42 192.75,165.06 L 161.375,165.06 z"/><path style="fill:#000;fill-opacity:1;fill-rule:evenodd;stroke:none;stroke-width:1;stroke-linecap:butt;stroke-linejoin:miter;stroke-miterlimit:4;stroke-opacity:1" id="path3036" d="M 551.093,526.03 C 543.970,639.54 527.089,723.7 506.593,797.15 L 624,797.15 C 604.261,723.91 588.746,639.88 582.468,526.03 L 551.093,526.03 z"/><path style="fill:#000;fill-opacity:1;fill-rule:evenodd;stroke:none;stroke-width:1;stroke-linecap:butt;stroke-linejoin:miter;stroke-miterlimit:4;stroke-opacity:1" id="path3040" d="M 675.437,501. C 637.586,501. 606.875,532.46 606.875,570.31 C 606.875,608.16 637.586,638.90 675.437,638.90 C 713.288,638.90 744.000,608.16 744,570.31 C 744,532.46 713.288,501. 675.437,501. z"/><path style="fill:#000;fill-opacity:1;fill-rule:evenodd;stroke:none;stroke-width:1;stroke-linecap:butt;stroke-linejoin:miter;stroke-miterlimit:4;stroke-opacity:1" id="path3046" d="M 68.593,143.6 C 30.742,143.6 0,174.36 0,212.21 C 0,250.07 30.742,280.78 68.593,280.78 C 106.445,280.78 137.156,250.07 137.156,212.21 C 137.156,174.36 106.445,143.6 68.593,143.6 z"/><path style="fill:#000;fill-opacity:1;fill-rule:evenodd;stroke:none;stroke-width:1;stroke-linecap:butt;stroke-linejoin:miter;stroke-miterlimit:4;stroke-opacity:1" id="path3054" d="M 507.406,0 C 479.357,101.33 444.335,181.71 418.312,289.1 L 516.406,220.53 L 569.718,289.09 L 623.031,220.5 L 715.406,289.03 C 685.074,180.8 650.084,100.80 623.187,0 L 507.406,0 z"/><path style="fill:#000;fill-opacity:1;fill-rule:evenodd;stroke:none;stroke-width:1;stroke-linecap:butt;stroke-linejoin:miter;stroke-miterlimit:4;stroke-opacity:1" id="path3038" d="M 458.281,504.6 C 420.429,504.6 389.718,535.33 389.718,573.18 C 389.718,611.03 420.429,641. 458.281,641. C 496.132,641. 526.875,611.03 526.875,573.18 C 526.875,535.33 496.132,504.62 458.281,504.6 z"/></g></pattern><pattern id="Polkadots-small" width="10" height="10" patternTransform="translate(0,0) scale(10,10)" patternUnits="userSpaceOnUse"><circle id="circle4534" cx="2.567" cy=".81" r=".05" style="fill:#000;stroke:none"/><circle id="circle4536" cx="3.048" cy="2.33" r=".05" style="fill:#000;stroke:none"/><circle id="circle4538" cx="4.418" cy="2.415" r=".05" style="fill:#000;stroke:none"/><circle id="circle4540" cx="1.844" cy="3.029" r=".05" style="fill:#000;stroke:none"/><circle id="circle4542" cx="6.08" cy="1.363" r=".05" style="fill:#000;stroke:none"/><circle id="circle4544" cx="5.819" cy="4.413" r=".05" style="fill:#000;stroke:none"/><circle id="circle4546" cx="4.305" cy="4.048" r=".05" style="fill:#000;stroke:none"/><circle id="circle4548" cx="5.541" cy="3.045" r=".05" style="fill:#000;stroke:none"/><circle id="circle4550" cx="4.785" cy="5.527" r=".05" style="fill:#000;stroke:none"/><circle id="circle4552" cx="2.667" cy="5.184" r=".05" style="fill:#000;stroke:none"/><circle id="circle4554" cx="7.965" cy="1.448" r=".05" style="fill:#000;stroke:none"/><circle id="circle4556" cx="7.047" cy="5.049" r=".05" style="fill:#000;stroke:none"/><circle id="circle4558" cx="4.34" cy=".895" r=".05" style="fill:#000;stroke:none"/><circle id="circle4560" cx="7.125" cy=".34" r=".05" style="fill:#000;stroke:none"/><circle id="circle4562" cx="9.553" cy="1.049" r=".05" style="fill:#000;stroke:none"/><circle id="circle4564" cx="7.006" cy="2.689" r=".05" style="fill:#000;stroke:none"/><circle id="circle4566" cx="8.909" cy="2.689" r=".05" style="fill:#000;stroke:none"/><circle id="circle4568" cx="9.315" cy="4.407" r=".05" style="fill:#000;stroke:none"/><circle id="circle4570" cx="7.82" cy="3.87" r=".05" style="fill:#000;stroke:none"/><circle id="circle4572" cx="8.27" cy="5.948" r=".05" style="fill:#000;stroke:none"/><circle id="circle4574" cx="7.973" cy="7.428" r=".05" style="fill:#000;stroke:none"/><circle id="circle4576" cx="9.342" cy="8.072" r=".05" style="fill:#000;stroke:none"/><circle id="circle4578" cx="8.206" cy="9.315" r=".05" style="fill:#000;stroke:none"/><circle id="circle4580" cx="9.682" cy="9.475" r=".05" style="fill:#000;stroke:none"/><circle id="circle4582" cx="9.688" cy="6.186" r=".05" style="fill:#000;stroke:none"/><circle id="circle4584" cx="3.379" cy="6.296" r=".05" style="fill:#000;stroke:none"/><circle id="circle4586" cx="2.871" cy="8.204" r=".05" style="fill:#000;stroke:none"/><circle id="circle4588" cx="4.59" cy="8.719" r=".05" style="fill:#000;stroke:none"/><circle id="circle4590" cx="3.181" cy="9.671" r=".05" style="fill:#000;stroke:none"/><circle id="circle4592" cx="5.734" cy="7.315" r=".05" style="fill:#000;stroke:none"/><circle id="circle4594" cx="6.707" cy="6.513" r=".05" style="fill:#000;stroke:none"/><circle id="circle4596" cx="5.73" cy="9.67" r=".05" style="fill:#000;stroke:none"/><circle id="circle4598" cx="6.535" cy="8.373" r=".05" style="fill:#000;stroke:none"/><circle id="circle4600" cx="4.37" cy="7.154" r=".05" style="fill:#000;stroke:none"/><circle id="circle4602" cx=".622" cy="7.25" r=".05" style="fill:#000;stroke:none"/><circle id="circle4604" cx=".831" cy="5.679" r=".05" style="fill:#000;stroke:none"/><circle id="circle4606" cx="1.257" cy="8.519" r=".05" style="fill:#000;stroke:none"/><circle id="circle4608" cx="1.989" cy="6.877" r=".05" style="fill:#000;stroke:none"/><circle id="circle4610" cx=".374" cy="3.181" r=".05" style="fill:#000;stroke:none"/><circle id="circle4612" cx="1.166" cy="1.664" r=".05" style="fill:#000;stroke:none"/><circle id="circle4614" cx="1.151" cy=".093" r=".05" style="fill:#000;stroke:none"/><circle id="circle4616" cx="1.151" cy="10.093" r=".05" style="fill:#000;stroke:none"/><circle id="circle4618" cx="1.302" cy="4.451" r=".05" style="fill:#000;stroke:none"/><circle id="circle4620" cx="3.047" cy="3.763" r=".05" style="fill:#000;stroke:none"/></pattern><pattern id="Wavy" width="30.066" height="5.181" patternUnits="userSpaceOnUse"><path id="path5068" d="M 7.597,0.061 C 5.079,-0.187 2.656,0.302 -0.01,1.788 L -0.01,3.061 C 2.773,1.431 5.173,1.052 7.472,1.280 C 9.770,1.508 11.969,2.361 14.253,3.218 C 18.820,4.931 23.804,6.676 30.066,3.061 L 30.062,1.788 C 23.622,5.497 19.246,3.770 14.691,2.061 C 12.413,1.207 10.115,0.311 7.597,0.061 z" style="fill:#000;stroke:none"/></pattern><pattern id="Packedcircles" width="1" height="1.732" patternTransform="translate(0,0) scale(10,10)" patternUnits="userSpaceOnUse"><circle id="circle4627" cx="0" cy=".5" r=".5" style="fill:#000;stroke:none"/><circle id="circle4629" cx="1" cy=".5" r=".5" style="fill:#000;stroke:none"/><circle id="circle4631" cx=".5" cy="1.366" r=".5" style="fill:#000;stroke:none"/><circle id="circle4633" cx=".5" cy="-.366" r=".5" style="fill:#000;stroke:none"/></pattern><pattern id="Polkadots-med" width="10" height="10" patternTransform="translate(0,0) scale(10,10)" patternUnits="userSpaceOnUse"><circle id="circle4814" cx="2.567" cy=".81" r=".15" style="fill:#000;stroke:none"/><circle id="circle4816" cx="3.048" cy="2.33" r=".15" style="fill:#000;stroke:none"/><circle id="circle4818" cx="4.418" cy="2.415" r=".15" style="fill:#000;stroke:none"/><circle id="circle4820" cx="1.844" cy="3.029" r=".15" style="fill:#000;stroke:none"/><circle id="circle4822" cx="6.08" cy="1.363" r=".15" style="fill:#000;stroke:none"/><circle id="circle4824" cx="5.819" cy="4.413" r=".15" style="fill:#000;stroke:none"/><circle id="circle4826" cx="4.305" cy="4.048" r=".15" style="fill:#000;stroke:none"/><circle id="circle4828" cx="5.541" cy="3.045" r=".15" style="fill:#000;stroke:none"/><circle id="circle4830" cx="4.785" cy="5.527" r=".15" style="fill:#000;stroke:none"/><circle id="circle4832" cx="2.667" cy="5.184" r=".15" style="fill:#000;stroke:none"/><circle id="circle4834" cx="7.965" cy="1.448" r=".15" style="fill:#000;stroke:none"/><circle id="circle4836" cx="7.047" cy="5.049" r=".15" style="fill:#000;stroke:none"/><circle id="circle4838" cx="4.34" cy=".895" r=".15" style="fill:#000;stroke:none"/><circle id="circle4840" cx="7.125" cy=".34" r=".15" style="fill:#000;stroke:none"/><circle id="circle4842" cx="9.553" cy="1.049" r=".15" style="fill:#000;stroke:none"/><circle id="circle4844" cx="7.006" cy="2.689" r=".15" style="fill:#000;stroke:none"/><circle id="circle4846" cx="8.909" cy="2.689" r=".15" style="fill:#000;stroke:none"/><circle id="circle4848" cx="9.315" cy="4.407" r=".15" style="fill:#000;stroke:none"/><circle id="circle4850" cx="7.82" cy="3.87" r=".15" style="fill:#000;stroke:none"/><circle id="circle4852" cx="8.27" cy="5.948" r=".15" style="fill:#000;stroke:none"/><circle id="circle4854" cx="7.973" cy="7.428" r=".15" style="fill:#000;stroke:none"/><circle id="circle4856" cx="9.342" cy="8.072" r=".15" style="fill:#000;stroke:none"/><circle id="circle4858" cx="8.206" cy="9.315" r=".15" style="fill:#000;stroke:none"/><circle id="circle4860" cx="9.682" cy="9.475" r=".15" style="fill:#000;stroke:none"/><circle id="circle4862" cx="9.688" cy="6.186" r=".15" style="fill:#000;stroke:none"/><circle id="circle4864" cx="3.379" cy="6.296" r=".15" style="fill:#000;stroke:none"/><circle id="circle4866" cx="2.871" cy="8.204" r=".15" style="fill:#000;stroke:none"/><circle id="circle4868" cx="4.59" cy="8.719" r=".15" style="fill:#000;stroke:none"/><circle id="circle4870" cx="3.181" cy="9.671" r=".15" style="fill:#000;stroke:none"/><circle id="circle4872" cx="5.734" cy="7.315" r=".15" style="fill:#000;stroke:none"/><circle id="circle4874" cx="6.707" cy="6.513" r=".15" style="fill:#000;stroke:none"/><circle id="circle4876" cx="5.73" cy="9.67" r=".15" style="fill:#000;stroke:none"/><circle id="circle4878" cx="6.535" cy="8.373" r=".15" style="fill:#000;stroke:none"/><circle id="circle4880" cx="4.37" cy="7.154" r=".15" style="fill:#000;stroke:none"/><circle id="circle4882" cx=".622" cy="7.25" r=".15" style="fill:#000;stroke:none"/><circle id="circle4884" cx=".831" cy="5.679" r=".15" style="fill:#000;stroke:none"/><circle id="circle4886" cx="1.257" cy="8.519" r=".15" style="fill:#000;stroke:none"/><circle id="circle4888" cx="1.989" cy="6.877" r=".15" style="fill:#000;stroke:none"/><circle id="circle4890" cx=".374" cy="3.181" r=".15" style="fill:#000;stroke:none"/><circle id="circle4892" cx="1.166" cy="1.664" r=".15" style="fill:#000;stroke:none"/><circle id="circle4894" cx="1.151" cy=".093" r=".15" style="fill:#000;stroke:none"/><circle id="circle4896" cx="1.151" cy="10.093" r=".15" style="fill:#000;stroke:none"/><circle id="circle4898" cx="1.302" cy="4.451" r=".15" style="fill:#000;stroke:none"/><circle id="circle4900" cx="3.047" cy="3.763" r=".15" style="fill:#000;stroke:none"/></pattern><pattern id="Polkadots-large" width="10" height="10" patternTransform="translate(0,0) scale(10,10)" patternUnits="userSpaceOnUse"><circle id="circle4992" cx="2.567" cy=".81" r=".45" style="fill:#000;stroke:none"/><circle id="circle4994" cx="3.048" cy="2.33" r=".45" style="fill:#000;stroke:none"/><circle id="circle4996" cx="4.418" cy="2.415" r=".45" style="fill:#000;stroke:none"/><circle id="circle4998" cx="1.844" cy="3.029" r=".45" style="fill:#000;stroke:none"/><circle id="circle5000" cx="6.08" cy="1.363" r=".45" style="fill:#000;stroke:none"/><circle id="circle5002" cx="5.819" cy="4.413" r=".45" style="fill:#000;stroke:none"/><circle id="circle5004" cx="4.305" cy="4.048" r=".45" style="fill:#000;stroke:none"/><circle id="circle5006" cx="5.541" cy="3.045" r=".45" style="fill:#000;stroke:none"/><circle id="circle5008" cx="4.785" cy="5.527" r=".45" style="fill:#000;stroke:none"/><circle id="circle5010" cx="2.667" cy="5.184" r=".45" style="fill:#000;stroke:none"/><circle id="circle5012" cx="7.965" cy="1.448" r=".45" style="fill:#000;stroke:none"/><circle id="circle5014" cx="7.047" cy="5.049" r=".45" style="fill:#000;stroke:none"/><circle id="circle5016" cx="4.34" cy=".895" r=".45" style="fill:#000;stroke:none"/><circle id="circle5018" cx="7.125" cy=".34" r=".45" style="fill:#000;stroke:none"/><circle id="circle5020" cx="9.553" cy="1.049" r=".45" style="fill:#000;stroke:none"/><circle id="circle5022" cx="7.006" cy="2.689" r=".45" style="fill:#000;stroke:none"/><circle id="circle5024" cx="8.909" cy="2.689" r=".45" style="fill:#000;stroke:none"/><circle id="circle5026" cx="9.315" cy="4.407" r=".45" style="fill:#000;stroke:none"/><circle id="circle5028" cx="7.82" cy="3.87" r=".45" style="fill:#000;stroke:none"/><circle id="circle5030" cx="8.27" cy="5.948" r=".45" style="fill:#000;stroke:none"/><circle id="circle5032" cx="7.973" cy="7.428" r=".45" style="fill:#000;stroke:none"/><circle id="circle5034" cx="9.342" cy="8.072" r=".45" style="fill:#000;stroke:none"/><circle id="circle5036" cx="8.206" cy="9.315" r=".45" style="fill:#000;stroke:none"/><circle id="circle5038" cx="9.682" cy="9.475" r=".45" style="fill:#000;stroke:none"/><circle id="circle5040" cx="9.688" cy="6.186" r=".45" style="fill:#000;stroke:none"/><circle id="circle5042" cx="3.379" cy="6.296" r=".45" style="fill:#000;stroke:none"/><circle id="circle5044" cx="2.871" cy="8.204" r=".45" style="fill:#000;stroke:none"/><circle id="circle5046" cx="4.59" cy="8.719" r=".45" style="fill:#000;stroke:none"/><circle id="circle5048" cx="3.181" cy="9.671" r=".45" style="fill:#000;stroke:none"/><circle id="circle5050" cx="5.734" cy="7.315" r=".45" style="fill:#000;stroke:none"/><circle id="circle5052" cx="6.707" cy="6.513" r=".45" style="fill:#000;stroke:none"/><circle id="circle5054" cx="5.73" cy="9.67" r=".45" style="fill:#000;stroke:none"/><circle id="circle5056" cx="6.535" cy="8.373" r=".45" style="fill:#000;stroke:none"/><circle id="circle5058" cx="4.37" cy="7.154" r=".45" style="fill:#000;stroke:none"/><circle id="circle5060" cx=".622" cy="7.25" r=".45" style="fill:#000;stroke:none"/><circle id="circle5062" cx=".831" cy="5.679" r=".45" style="fill:#000;stroke:none"/><circle id="circle5064" cx="1.257" cy="8.519" r=".45" style="fill:#000;stroke:none"/><circle id="circle5066" cx="1.989" cy="6.877" r=".45" style="fill:#000;stroke:none"/><circle id="circle5068" cx=".374" cy="3.181" r=".45" style="fill:#000;stroke:none"/><circle id="circle5070" cx="1.166" cy="1.664" r=".45" style="fill:#000;stroke:none"/><circle id="circle5072" cx="1.151" cy=".093" r=".45" style="fill:#000;stroke:none"/><circle id="circle5074" cx="1.151" cy="10.093" r=".45" style="fill:#000;stroke:none"/><circle id="circle5076" cx="1.302" cy="4.451" r=".45" style="fill:#000;stroke:none"/><circle id="circle5078" cx="3.047" cy="3.763" r=".45" style="fill:#000;stroke:none"/></pattern><filter id="filter5318"><feGaussianBlur id="feGaussianBlur5320" stdDeviation="1.93"/></filter><filter id="filter5326"><feGaussianBlur id="feGaussianBlur5328" stdDeviation=".386"/></filter><filter id="filter5547"><feGaussianBlur id="feGaussianBlur5549" stdDeviation="7.68"/></filter><filter id="filter5710"><feGaussianBlur id="feGaussianBlur5712" stdDeviation="3.84"/></filter><filter id="filter5831"><feGaussianBlur id="feGaussianBlur5833" stdDeviation="1.792"/></filter><filter id="filter5235"><feGaussianBlur id="feGaussianBlur5237" stdDeviation="1.792"/></filter><filter id="filter5327"><feGaussianBlur id="feGaussianBlur5329" stdDeviation="5.12"/></filter><filter id="filter5457"><feGaussianBlur id="feGaussianBlur5459" stdDeviation="7.68"/></filter><filter id="filter5516"><feGaussianBlur id="feGaussianBlur5518" stdDeviation="1.792"/></filter><filter id="filter5532"><feGaussianBlur id="feGaussianBlur5534" stdDeviation="7.68"/></filter><pattern id="pattern5675" width="981.337" height="981.337" patternTransform="translate(-213.14934,327.1871)" patternUnits="userSpaceOnUse"><path id="rect5567" d="m 426.66832,938.67034 512.00202,-512.00202 42.66689,42.6669 -512.00201,512.00201 -42.6669,-42.66689 z" style="fill:#fff201;fill-opacity:1;stroke:none"/><path id="rect5571" d="M 341.33467,853.33669 C 566.25453,628.41683 762.24944,432.42192 853.33669,341.33467 l 42.66683,42.66684 -512.00201,512.00201 -42.66684,-42.66683 z" style="fill:#fff201;fill-opacity:1;stroke:none"/><path id="rect5583" d="M 256.00099,768.00301 C 429.00759,597.92048 607.1602,429.12446 768.00301,256.00099 l 42.66683,42.66684 C 642.28918,471.62184 470.19408,640.86142 298.66783,810.66984 l -42.66684,-42.66683 z" style="fill:#fff201;fill-opacity:1;stroke:none"/><path id="rect5609" d="M 170.66735,682.66937 C 355.14268,493.01603 524.49554,324.15611 682.66937,170.66735 l 42.66683,42.66683 C 598.42339,338.7382 435.5073,501.38701 213.33418,725.3362 l -42.66683,-42.66683 z" style="fill:#fff201;fill-opacity:1;stroke:none"/><path id="rect5613" d="m 85.33366,597.33568 c 34.80384,-28.09788 62.90313,-62.9003 94.35257,-94.35257 L 597.33568,85.33366 640.00252,128.0005 C 467.6509,293.61499 297.06312,464.52103 128.0005,640.00252 L 85.33366,597.33568 z" style="fill:#fff201;fill-opacity:1;stroke:none"/><path id="rect5617" d="M 0,512.00202 512.00202,0 554.66886,42.666837 C 384.00151,213.33418 213.33418,384.00151 42.666837,554.66886 L 0,512.00202 z" style="fill:#fff201;fill-opacity:1;stroke:none"/></pattern><mask id="mask5699" maskUnits="userSpaceOnUse"><g id="g5701"><rect style="fill:#fff;fill-opacity:1;stroke:none" id="rect5703" width="512" height="512" x="0" y="540.362"/><path style="fill:#000;fill-opacity:1;stroke:none" id="path5705" d="m 68,984.375 c 128.30067,3.04604 253.94271,-2.8657 378,0 1.35927,-126 3.13673,-252 0,-378 -125.99361,-4.38358 -250.90644,4.35326 -378,0 4.418635,126.82442 -7.317885,250.3738 0,378 z"/><rect style="opacity:.6;fill:url(#Polkadots-large);fill-opacity:1;stroke:none;filter:url(#filter5326)" id="rect5707" width="386" height="386" x="64" y="602.362"/><rect id="rect5709" width="386" height="386" x="64" y="602.362" style="fill:url(#Polkadots-large);fill-opacity:1;stroke:none;filter:url(#filter5318)"/></g></mask></defs><metadata id="metadata7"/><g id="layer2" style="display:inline"><rect style="fill:gray;fill-opacity:1;stroke:none" id="rect5349" width="512" height="512" x="0" y="0"/><rect id="rect5447" width="512" height="512" x="0" y="0" style="opacity:.5;fill:url(#Polkadots-large);fill-opacity:1;stroke:none;filter:url(#filter5547)"/><rect style="opacity:.2;fill:url(#Ermine);fill-opacity:1;stroke:none;filter:url(#filter5532)" id="rect5551" width="512" height="512" x="0" y="0"/><rect id="rect5647" width="512" height="512" x="0" y="0" style="opacity:.2;fill:url(#Polkadots-med);fill-opacity:1;stroke:none;filter:url(#filter5710)"/><rect style="opacity:.15;fill:url(#Packedcircles);fill-opacity:1;stroke:none;filter:url(#filter5831)" id="rect5804" width="512" height="512" x="0" y="0"/></g><g id="layer1" transform="translate(0,-540.36218)" style="display:inline"><g id="g5695" mask="url(#mask5699)"><rect style="fill:#000;fill-opacity:1;stroke:none" id="rect5693" width="512" height="512" x="0" y="540.362"/><rect id="rect5685" width="512" height="512" x="0" y="540.362" style="fill:url(#pattern5675);fill-opacity:1;stroke:none"/></g><path style="fill:#b33636;fill-opacity:1;stroke:#000;stroke-opacity:1" id="path3013" d="m 418.67123,262.10559 a 137.81262,133.01534 0 1 1 -275.62524,0 137.81262,133.01534 0 1 1 275.62524,0 z" transform="matrix(0.97959097,0,0,1.0149206,-16.269668,519.63881)"/><path style="fill:#f6f6f6;fill-opacity:1;stroke:#000;stroke-width:.99709934;stroke-opacity:1" id="path3787" d="m 257.375,116.3125 c -58.3094,-0.4127 -112.97807,44.0124 -124.625,101.125 -10.62945,47.34267 7.66364,99.94514 46.40625,129.375 38.83763,30.76299 95.75226,36.57908 139.46875,12.84375 C 360.59143,337.84811 389.14283,291.86036 387.9375,244.25 387.69834,200.12419 363.516,156.87936 325.28125,134.71875 304.88477,122.47602 281.20244,115.89016 257.375,116.3125 z m -2.78125,6 c 0.95902,-0.0128 1.91349,-0.0133 2.875,0 9.16414,-0.14161 18.25221,0.78203 27.1875,2.6875 44.69148,8.7493 82.21711,45.36011 93.375,89.375 12.09603,43.28561 -3.1898,91.94043 -36.375,121.9375 -33.70511,32.12057 -86.61163,40.41662 -129.40625,22.875 -48.74736,-18.60278 -80.43773,-71.55341 -76.1875,-123.21875 2.99029,-60.55659 58.11288,-112.85095 118.53125,-113.65625 z" transform="translate(0,540.36218)"/><rect style="fill:#fff;fill-opacity:1;stroke:#000;stroke-opacity:1" id="rect3806" width="182.296" height="40.995" x="165.724" y="224.164" transform="translate(0,540.36218)"/><text style="font-size:24px;font-style:normal;font-variant:normal;font-weight:400;font-stretch:normal;fill:#000;fill-opacity:1;stroke:none;font-family:Sans;-inkscape-font-specification:Sans" id="text3808" x="181.944" y="793.323" xml:space="preserve"><tspan id="tspan3810" x="181.944" y="793.323">Do not enter</tspan></text></g><g id="layer3" style="display:inline"><rect style="opacity:.1;fill:url(#Wavy);fill-opacity:1;stroke:none;filter:url(#filter5235)" id="rect2945" width="512" height="512" x="0" y="0"/><rect id="rect5261" width="512" height="512" x="0" y="0" style="opacity:.2;fill:url(#Polkadots-large);fill-opacity:1;stroke:none;filter:url(#filter5327)"/><rect style="opacity:.5;fill:url(#Polkadots-med);fill-opacity:1;stroke:none;filter:url(#filter5457)" id="rect5377" width="512" height="512" x="0" y="0"/><rect id="rect5461" width="512" height="512" x="0" y="0" style="opacity:.35;fill:url(#Polkadots-small);fill-opacity:1;stroke:none;filter:url(#filter5516)"/></g></svg>