<svg xmlns="http://www.w3.org/2000/svg" xmlns:svg="http://www.w3.org/2000/svg" id="svg2" width="128" height="128" version="1.1"><defs id="defs4"><filter id="filter3928"><feGaussianBlur id="feGaussianBlur3930" stdDeviation="5.6"/></filter><filter id="filter3940" width="1.233" height="1.247" x="-.117" y="-.124"><feGaussianBlur id="feGaussianBlur3942" stdDeviation="7"/></filter><filter id="filter3956"><feGaussianBlur id="feGaussianBlur3958" stdDeviation="5.6"/></filter><filter id="filter3960"><feGaussianBlur id="feGaussianBlur3962" stdDeviation="1.92"/></filter></defs><metadata id="metadata7"/><g id="layer1" transform="translate(0,-924.36218)"><path style="fill:#0024bd;fill-opacity:.18534483;stroke:none;filter:url(#filter3940)" id="path3778" d="m 0,0 -8,0 0,136 144,0 0,-136 -8,0 C 128,24 104,32 64,40 24,32 0,24 0,0 z" transform="translate(0,924.36218)"/><path id="path3816" d="m 0,0 -8,0 0,136 144,0 0,-136 -8,0 C 128,40 104,40 64,48 24,40 0,40 0,0 z" transform="translate(0,924.36218)" style="fill:#00a4bd;fill-opacity:.24568966;stroke:none;filter:url(#filter3928)"/><path style="fill:#e8f1f7;fill-opacity:.79741378;stroke:none;filter:url(#filter3956)" id="path3818" d="m 0,0 -8,0 0,136 144,0 0,-136 -8,0 C 128,72 112,64 64,64 16,64 0,72 0,0 z" transform="translate(0,924.36218)"/><path style="fill:#fff;fill-opacity:.94827587999999996;stroke:none;filter:url(#filter3960)" id="path3774" d="m 0,0 0,128 128,0 0,-128 C 120,56 128,96 64,96 0,96 8,56 0,0 z" transform="translate(0,924.36218)"/></g></svg>