<svg xmlns="http://www.w3.org/2000/svg" xmlns:svg="http://www.w3.org/2000/svg" xmlns:xlink="http://www.w3.org/1999/xlink" id="svg2" width="256" height="256" version="1.1"><defs id="defs4"><linearGradient id="linearGradient4087"><stop style="stop-color:#5d14ff;stop-opacity:1" id="stop4089" offset="0"/><stop style="stop-color:#9c14ff;stop-opacity:1" id="stop4091" offset="1"/></linearGradient><linearGradient id="linearGradient4073"><stop style="stop-color:#808282;stop-opacity:1" id="stop4075" offset="0"/><stop style="stop-color:#806e82;stop-opacity:0" id="stop4077" offset="1"/></linearGradient><linearGradient id="linearGradient4063"><stop style="stop-color:#0028ff;stop-opacity:1" id="stop4065" offset="0"/><stop style="stop-color:#0000b4;stop-opacity:0" id="stop4067" offset="1"/></linearGradient><linearGradient id="linearGradient3983"><stop style="stop-color:#806c78;stop-opacity:1" id="stop3985" offset="0"/><stop id="stop3991" offset=".767" style="stop-color:#807a78;stop-opacity:.17692308"/><stop style="stop-color:#80ff85;stop-opacity:0" id="stop3987" offset="1"/></linearGradient><linearGradient id="linearGradient3965"><stop style="stop-color:#968081;stop-opacity:1" id="stop3967" offset="0"/><stop id="stop3975" offset=".1" style="stop-color:#82e680;stop-opacity:1"/><stop id="stop3973" offset=".5" style="stop-color:#81ff6e;stop-opacity:1"/><stop style="stop-color:#7ee680;stop-opacity:1" id="stop3977" offset=".9"/><stop style="stop-color:#648081;stop-opacity:1" id="stop3969" offset="1"/></linearGradient><linearGradient id="linearGradient3971" x1="0" x2="256" y1="924.362" y2="924.362" gradientUnits="userSpaceOnUse" xlink:href="#linearGradient3965"/><radialGradient id="radialGradient3989" cx="95.5" cy="108.75" r="30" fx="95.5" fy="108.75" gradientTransform="matrix(0.99951961,0.03099286,-0.03333333,1.075,3.6708776,-11.116068)" gradientUnits="userSpaceOnUse" xlink:href="#linearGradient3983"/><radialGradient id="radialGradient4001" cx="95.5" cy="108.75" r="30" fx="95.5" fy="108.75" gradientTransform="matrix(0.99951961,0.03099286,-0.03333333,1.075,3.6708776,-11.116068)" gradientUnits="userSpaceOnUse" xlink:href="#linearGradient3983"/><filter id="filter4003"><feGaussianBlur id="feGaussianBlur4005" stdDeviation="3.445"/></filter><filter id="filter4007"><feGaussianBlur id="feGaussianBlur4009" stdDeviation="3.432"/></filter><filter id="filter4011"><feGaussianBlur id="feGaussianBlur4013" stdDeviation="2.598"/></filter><filter id="filter4057" width="1.059" height="1.264" x="-.029" y="-.132"><feGaussianBlur id="feGaussianBlur4059" stdDeviation="1.155"/></filter><linearGradient id="linearGradient4069" x1="231.688" x2="231.72" y1="51.713" y2="30.36" gradientUnits="userSpaceOnUse" xlink:href="#linearGradient4063"/><linearGradient id="linearGradient4079" x1="226.883" x2="226.495" y1="26.914" y2="51.773" gradientUnits="userSpaceOnUse" xlink:href="#linearGradient4073"/><filter id="filter4099" width="1.434" height="1.43" x="-.217" y="-.215"><feGaussianBlur id="feGaussianBlur4101" stdDeviation="15.588"/></filter><filter id="filter4103" width="1.128" height="1.243" x="-.064" y="-.122"><feGaussianBlur id="feGaussianBlur4105" stdDeviation="2.571"/></filter><filter id="filter4109" width="1.44" height="1.424" x="-.22" y="-.212"><feGaussianBlur id="feGaussianBlur4111" stdDeviation="15.443"/></filter><linearGradient id="linearGradient4129" x1="-.459" x2="207.253" y1="116.009" y2="103.904" gradientUnits="userSpaceOnUse" xlink:href="#linearGradient4087"/><filter id="filter4131" width="1.425" height="1.44" x="-.212" y="-.22"><feGaussianBlur id="feGaussianBlur4133" stdDeviation="15.502"/></filter><linearGradient id="linearGradient4150" x1="-8.896" x2="196.438" y1="77.348" y2="150.027" gradientUnits="userSpaceOnUse" xlink:href="#linearGradient4087"/><radialGradient id="radialGradient4152" cx="95.5" cy="108.75" r="30" fx="95.5" fy="108.75" gradientTransform="matrix(0.75531181,-0.01884388,0.06664352,1.1158459,93.173813,790.7212)" gradientUnits="userSpaceOnUse" xlink:href="#linearGradient3983"/><linearGradient id="linearGradient4154" x1="43.832" x2="183.246" y1="174.362" y2="32.496" gradientUnits="userSpaceOnUse" xlink:href="#linearGradient4087"/><linearGradient id="linearGradient4181" x1="-8.896" x2="196.438" y1="77.348" y2="150.027" gradientUnits="userSpaceOnUse" xlink:href="#linearGradient4087"/><radialGradient id="radialGradient4183" cx="95.5" cy="108.75" r="30" fx="95.5" fy="108.75" gradientTransform="matrix(0.99951961,0.03099286,-0.03333333,1.075,3.6708776,-11.116068)" gradientUnits="userSpaceOnUse" xlink:href="#linearGradient3983"/><linearGradient id="linearGradient4191" x1="226.883" x2="226.495" y1="26.914" y2="51.773" gradientUnits="userSpaceOnUse" xlink:href="#linearGradient4073"/><linearGradient id="linearGradient4193" x1="231.688" x2="231.72" y1="51.713" y2="30.36" gradientUnits="userSpaceOnUse" xlink:href="#linearGradient4063"/><linearGradient id="linearGradient4201" x1="43.832" x2="183.246" y1="174.362" y2="32.496" gradientUnits="userSpaceOnUse" xlink:href="#linearGradient4087"/><radialGradient id="radialGradient4203" cx="95.5" cy="108.75" r="30" fx="95.5" fy="108.75" gradientTransform="matrix(0.75531181,-0.01884388,0.06664352,1.1158459,-14.826187,923.7212)" gradientUnits="userSpaceOnUse" xlink:href="#linearGradient3983"/></defs><metadata id="metadata7"/><g id="layer1" transform="translate(0,-796.36218)"><rect style="fill:url(#linearGradient3971);fill-opacity:1;stroke:none" id="rect3957" width="256" height="256" x="0" y="796.362"/><path style="fill:url(#linearGradient4154);fill-opacity:1;stroke:none;filter:url(#filter4109)" id="path4107" d="M 166.5,170.5 109.29708,148.37487 58.641719,182.95419 44.543723,137.38873 13.467041,84.223423 64.222026,55.744606 93.405835,10.750267 142.68466,77.736594 c 15.10025,-4.554823 40.54952,-37.23849 43.84022,-31.193407 l 13.88055,77.283843 z" transform="matrix(0.22801436,0.1766904,-0.17649384,0.19685401,165.06205,853.43705)"/><path style="fill:url(#linearGradient4150);fill-opacity:1;stroke:none;filter:url(#filter4099)" id="path4081" d="M 166.5,170.5 104.97946,197.82592 42.86499,180.90518 37.835124,125.13721 16.017372,63.282659 64.910846,65.671501 93.405835,10.750267 126.67914,62.272904 187.9854,64.072124 149.26648,111.63829 z" transform="matrix(0.31032509,-0.10114164,0.10282298,0.28031333,42.160053,818.49152)"/><rect id="rect4071" width="94.5" height="21" x="183.5" y="31" transform="matrix(0.57912735,-0.11112813,0.13772457,0.95996802,99.1748,834.18292)" style="fill:url(#linearGradient4079);fill-opacity:1;stroke:none;filter:url(#filter4057)"/><path style="fill:url(#radialGradient4001);fill-opacity:1;stroke:none" id="path3999" d="m 125.5,108.75 a 30,54.75 0 1 1 -60,0 30,54.75 0 1 1 60,0 z" transform="matrix(1.0469085,-0.05711642,0.11865027,1.1609434,-48.200577,835.29233)"/><path style="fill:url(#linearGradient4129);fill-opacity:1;stroke:none;filter:url(#filter4131)" id="path4121" d="m 172.60377,199.7512 -58.69185,-7.70918 -42.764758,33.909 L 51.266418,153.58689 13.467041,84.223423 72.749999,68.499996 93.405835,10.750267 151.20194,33.992312 187.9854,64.072124 182.91304,126.64181 z" transform="matrix(0.28770352,0.02324195,-0.0154836,0.27359218,33.121865,901.95444)"/><path style="fill:url(#radialGradient4152);fill-opacity:1;stroke:none" id="path3993" d="m 195.14443,908.74015 c 2.58059,31.33875 -5.44171,57.42865 -17.91829,58.27335 -12.47658,0.8449 -24.68284,-23.8753 -27.26342,-55.21396 -2.58059,-31.33869 5.4417,-57.42859 17.91829,-58.27342 12.47658,-0.84483 24.68283,23.87534 27.26342,55.21403 z"/><path style="fill:url(#radialGradient3989);fill-opacity:1;stroke:none" id="path3981" d="m 125.5,108.75 a 30,54.75 0 1 1 -60,0 30,54.75 0 1 1 60,0 z" transform="matrix(0.82682486,0.13407202,-0.1656216,1.1335384,23.70853,718.11448)"/><path style="fill:#fff;fill-opacity:1;stroke:none" id="path4017" d="m -20,33 -1.194836,1.330223 0.418435,1.738401 -1.634342,-0.725295 -1.524014,0.935151 L -23.75,34.5 l -1.360328,-1.160446 1.748528,-0.373866 0.683286,-1.652346 0.895893,1.547418 z" transform="translate(0,796.36218)"/><rect id="rect4061" width="94.5" height="21" x="183.5" y="31" transform="matrix(0.55634304,-0.19235486,0.19235486,0.55634304,96.57288,854.18886)" style="fill:url(#linearGradient4069);fill-opacity:1;stroke:none;filter:url(#filter4103)"/><rect style="fill:#808cff;fill-opacity:1;stroke:none;filter:url(#filter4057)" id="rect4055" width="94.5" height="21" x="183.5" y="31" transform="matrix(0.55634304,-0.19235486,0.19235486,0.55634304,98.92751,860.95842)"/><path style="fill:#808cff;fill-opacity:1;stroke:none;filter:url(#filter4003)" id="path3997" d="M 166.5,170.5 97.006081,163.45181 58.641719,182.95419 44.273649,133.04339 13.467041,84.223423 72.749999,68.499996 93.405835,10.750267 146.97242,25.46696 187.9854,64.072124 164.84264,108.9118 z" transform="matrix(0.24864933,0.01972254,-0.01338178,0.23216351,37.225593,911.28422)"/><path style="fill:#8082ff;fill-opacity:1;stroke:none;filter:url(#filter4011)" id="path3959" d="M 166.5,170.5 108.47608,188.25603 30.261051,177.17813 44.422742,133.22576 7.9557173,50.985767 53.252829,52.536789 93.405835,10.750267 126.67914,62.272904 172.34489,61.404875 137.93874,100.1108 z" transform="matrix(0.247229,-0.08254844,0.08191676,0.22878241,51.877584,825.47327)"/><path style="fill:#8082ff;fill-opacity:1;stroke:none;filter:url(#filter4007)" id="path3979" d="M 166.5,170.5 106.66391,127.2384 46.25737,166.95471 32.488744,130.13205 14.744552,90.307515 41.797637,52.897438 93.405835,10.750267 126.67914,62.272904 183.59226,51.74609 l -2.96912,51.63194 z" transform="matrix(0.1787645,0.15345679,-0.13837213,0.17096903,167.80706,862.97445)"/><path id="path4175" d="M 166.5,170.5 104.97946,197.82592 42.86499,180.90518 37.835124,125.13721 16.017372,63.282659 64.910846,65.671501 93.405835,10.750267 126.67914,62.272904 187.9854,64.072124 149.26648,111.63829 z" transform="matrix(0.31032509,-0.10114164,0.10282298,0.28031333,111.66005,964.49152)" style="fill:url(#linearGradient4181);fill-opacity:1;stroke:none;filter:url(#filter4099)"/><path id="path4177" d="m 125.5,108.75 a 30,54.75 0 1 1 -60,0 30,54.75 0 1 1 60,0 z" transform="matrix(0.82682486,0.13407202,-0.1656216,1.1335384,93.20853,864.11448)" style="fill:url(#radialGradient4183);fill-opacity:1;stroke:none"/><path id="path4179" d="M 166.5,170.5 108.47608,188.25603 30.261051,177.17813 44.422742,133.22576 7.9557173,50.985767 53.252829,52.536789 93.405835,10.750267 126.67914,62.272904 172.34489,61.404875 137.93874,100.1108 z" transform="matrix(0.247229,-0.08254844,0.08191676,0.22878241,121.37758,971.47327)" style="fill:#8082ff;fill-opacity:1;stroke:none;filter:url(#filter4011)"/><rect style="fill:url(#linearGradient4191);fill-opacity:1;stroke:none;filter:url(#filter4057)" id="rect4185" width="94.5" height="21" x="183.5" y="31" transform="matrix(0.57912735,-0.11112813,0.13772457,0.95996802,103.1748,1012.6829)"/><rect style="fill:url(#linearGradient4193);fill-opacity:1;stroke:none;filter:url(#filter4103)" id="rect4187" width="94.5" height="21" x="183.5" y="31" transform="matrix(0.55634304,-0.19235486,0.19235486,0.55634304,100.57288,1032.6889)"/><rect id="rect4189" width="94.5" height="21" x="183.5" y="31" transform="matrix(0.55634304,-0.19235486,0.19235486,0.55634304,102.92751,1039.4584)" style="fill:#808cff;fill-opacity:1;stroke:none;filter:url(#filter4057)"/><path id="path4195" d="M 166.5,170.5 109.29708,148.37487 58.641719,182.95419 44.543723,137.38873 13.467041,84.223423 64.222026,55.744606 93.405835,10.750267 142.68466,77.736594 c 15.10025,-4.554823 40.54952,-37.23849 43.84022,-31.193407 l 13.88055,77.283843 z" transform="matrix(0.22801436,0.1766904,-0.17649384,0.19685401,57.06205,986.43705)" style="fill:url(#linearGradient4201);fill-opacity:1;stroke:none;filter:url(#filter4109)"/><path id="path4197" d="m 87.14443,1041.7402 c 2.58059,31.3387 -5.44171,57.4286 -17.91829,58.2733 -12.47658,0.8449 -24.68284,-23.8753 -27.26342,-55.214 -2.58059,-31.3387 5.4417,-57.42855 17.91829,-58.27338 12.47658,-0.84483 24.68283,23.87538 27.26342,55.21408 z" style="fill:url(#radialGradient4203);fill-opacity:1;stroke:none"/><path id="path4199" d="M 166.5,170.5 106.66391,127.2384 46.25737,166.95471 32.488744,130.13205 14.744552,90.307515 41.797637,52.897438 93.405835,10.750267 126.67914,62.272904 183.59226,51.74609 l -2.96912,51.63194 z" transform="matrix(0.1787645,0.15345679,-0.13837213,0.17096903,59.80706,995.97445)" style="fill:#8082ff;fill-opacity:1;stroke:none;filter:url(#filter4007)"/></g></svg>