<svg xmlns="http://www.w3.org/2000/svg" xmlns:svg="http://www.w3.org/2000/svg" xmlns:xlink="http://www.w3.org/1999/xlink" id="svg2" width="256" height="256" version="1.1"><defs id="defs4"><linearGradient id="linearGradient5800"><stop style="stop-color:#c0ffff;stop-opacity:1" id="stop5802" offset="0"/><stop style="stop-color:#fff;stop-opacity:1" id="stop5804" offset="1"/></linearGradient><pattern id="pattern5774" patternTransform="scale(6.4,1.6)" xlink:href="#Polkadots-large"/><pattern id="Polkadots-large" width="10" height="10" patternTransform="translate(0,0) scale(10,10)" patternUnits="userSpaceOnUse"><circle id="circle5007" cx="2.567" cy=".81" r=".45" style="fill:#000;stroke:none"/><circle id="circle5009" cx="3.048" cy="2.33" r=".45" style="fill:#000;stroke:none"/><circle id="circle5011" cx="4.418" cy="2.415" r=".45" style="fill:#000;stroke:none"/><circle id="circle5013" cx="1.844" cy="3.029" r=".45" style="fill:#000;stroke:none"/><circle id="circle5015" cx="6.08" cy="1.363" r=".45" style="fill:#000;stroke:none"/><circle id="circle5017" cx="5.819" cy="4.413" r=".45" style="fill:#000;stroke:none"/><circle id="circle5019" cx="4.305" cy="4.048" r=".45" style="fill:#000;stroke:none"/><circle id="circle5021" cx="5.541" cy="3.045" r=".45" style="fill:#000;stroke:none"/><circle id="circle5023" cx="4.785" cy="5.527" r=".45" style="fill:#000;stroke:none"/><circle id="circle5025" cx="2.667" cy="5.184" r=".45" style="fill:#000;stroke:none"/><circle id="circle5027" cx="7.965" cy="1.448" r=".45" style="fill:#000;stroke:none"/><circle id="circle5029" cx="7.047" cy="5.049" r=".45" style="fill:#000;stroke:none"/><circle id="circle5031" cx="4.34" cy=".895" r=".45" style="fill:#000;stroke:none"/><circle id="circle5033" cx="7.125" cy=".34" r=".45" style="fill:#000;stroke:none"/><circle id="circle5035" cx="9.553" cy="1.049" r=".45" style="fill:#000;stroke:none"/><circle id="circle5037" cx="7.006" cy="2.689" r=".45" style="fill:#000;stroke:none"/><circle id="circle5039" cx="8.909" cy="2.689" r=".45" style="fill:#000;stroke:none"/><circle id="circle5041" cx="9.315" cy="4.407" r=".45" style="fill:#000;stroke:none"/><circle id="circle5043" cx="7.82" cy="3.87" r=".45" style="fill:#000;stroke:none"/><circle id="circle5045" cx="8.27" cy="5.948" r=".45" style="fill:#000;stroke:none"/><circle id="circle5047" cx="7.973" cy="7.428" r=".45" style="fill:#000;stroke:none"/><circle id="circle5049" cx="9.342" cy="8.072" r=".45" style="fill:#000;stroke:none"/><circle id="circle5051" cx="8.206" cy="9.315" r=".45" style="fill:#000;stroke:none"/><circle id="circle5053" cx="9.682" cy="9.475" r=".45" style="fill:#000;stroke:none"/><circle id="circle5055" cx="9.688" cy="6.186" r=".45" style="fill:#000;stroke:none"/><circle id="circle5057" cx="3.379" cy="6.296" r=".45" style="fill:#000;stroke:none"/><circle id="circle5059" cx="2.871" cy="8.204" r=".45" style="fill:#000;stroke:none"/><circle id="circle5061" cx="4.59" cy="8.719" r=".45" style="fill:#000;stroke:none"/><circle id="circle5063" cx="3.181" cy="9.671" r=".45" style="fill:#000;stroke:none"/><circle id="circle5065" cx="5.734" cy="7.315" r=".45" style="fill:#000;stroke:none"/><circle id="circle5067" cx="6.707" cy="6.513" r=".45" style="fill:#000;stroke:none"/><circle id="circle5069" cx="5.73" cy="9.67" r=".45" style="fill:#000;stroke:none"/><circle id="circle5071" cx="6.535" cy="8.373" r=".45" style="fill:#000;stroke:none"/><circle id="circle5073" cx="4.37" cy="7.154" r=".45" style="fill:#000;stroke:none"/><circle id="circle5075" cx=".622" cy="7.25" r=".45" style="fill:#000;stroke:none"/><circle id="circle5077" cx=".831" cy="5.679" r=".45" style="fill:#000;stroke:none"/><circle id="circle5079" cx="1.257" cy="8.519" r=".45" style="fill:#000;stroke:none"/><circle id="circle5081" cx="1.989" cy="6.877" r=".45" style="fill:#000;stroke:none"/><circle id="circle5083" cx=".374" cy="3.181" r=".45" style="fill:#000;stroke:none"/><circle id="circle5085" cx="1.166" cy="1.664" r=".45" style="fill:#000;stroke:none"/><circle id="circle5087" cx="1.151" cy=".093" r=".45" style="fill:#000;stroke:none"/><circle id="circle5089" cx="1.151" cy="10.093" r=".45" style="fill:#000;stroke:none"/><circle id="circle5091" cx="1.302" cy="4.451" r=".45" style="fill:#000;stroke:none"/><circle id="circle5093" cx="3.047" cy="3.763" r=".45" style="fill:#000;stroke:none"/></pattern><linearGradient id="linearGradient3770"><stop style="stop-color:#000;stop-opacity:1" id="stop3772" offset="0"/><stop style="stop-color:#ff0004;stop-opacity:1" id="stop3774" offset="1"/></linearGradient><linearGradient id="linearGradient3776" x1="0" x2="16" y1="128" y2="128" gradientUnits="userSpaceOnUse" xlink:href="#linearGradient3770"/><linearGradient id="linearGradient3789" x1="-.5" x2="16.5" y1="128" y2="128" gradientUnits="userSpaceOnUse" xlink:href="#linearGradient3770"/><linearGradient id="linearGradient3801" x1="0" x2="16" y1="128" y2="128" gradientTransform="matrix(0,1,-1,0,256,796.36218)" gradientUnits="userSpaceOnUse" xlink:href="#linearGradient3770"/><linearGradient id="linearGradient3803" x1="-.5" x2="16.5" y1="128" y2="128" gradientTransform="matrix(0,1,-1,0,256,796.36218)" gradientUnits="userSpaceOnUse" xlink:href="#linearGradient3770"/><linearGradient id="linearGradient3826" x1="0" x2="16" y1="128" y2="128" gradientTransform="matrix(-1,0,0,-1,256,1052.3622)" gradientUnits="userSpaceOnUse" xlink:href="#linearGradient3770"/><linearGradient id="linearGradient3828" x1="-.5" x2="16.5" y1="128" y2="128" gradientTransform="matrix(-1,0,0,-1,256,1052.3622)" gradientUnits="userSpaceOnUse" xlink:href="#linearGradient3770"/><linearGradient id="linearGradient3832" x1="0" x2="16" y1="128" y2="128" gradientTransform="matrix(0,-1,1,0,0,1052.3622)" gradientUnits="userSpaceOnUse" xlink:href="#linearGradient3770"/><linearGradient id="linearGradient3834" x1="-.5" x2="16.5" y1="128" y2="128" gradientTransform="matrix(0,-1,1,0,0,1052.3622)" gradientUnits="userSpaceOnUse" xlink:href="#linearGradient3770"/><filter id="filter5796"><feGaussianBlur id="feGaussianBlur5798" stdDeviation="2.944"/></filter><radialGradient id="radialGradient5806" cx="128" cy="128" r="112" fx="128" fy="128" gradientUnits="userSpaceOnUse" xlink:href="#linearGradient5800"/><filter id="filter5820"><feGaussianBlur id="feGaussianBlur5822" stdDeviation="7.384"/></filter></defs><metadata id="metadata7"/><g id="layer1" transform="translate(0,-796.36218)"><path style="fill:url(#linearGradient3776);fill-opacity:1;stroke:url(#linearGradient3789);stroke-opacity:1" id="rect3768" d="M 0,0 16,16 16,240 0,256 z" transform="translate(0,796.36218)"/><path id="path3799" d="m 256,796.36218 -16,16 -224,0 -16,-16 z" style="fill:url(#linearGradient3801);fill-opacity:1;stroke:url(#linearGradient3803);stroke-opacity:1"/><path style="fill:url(#linearGradient3826);fill-opacity:1;stroke:url(#linearGradient3828);stroke-opacity:1" id="path3824" d="m 256,1052.3622 -16,-16 0,-224.00002 16,-16 z"/><path id="path3830" d="m 0,1052.3622 16,-16 224.00002,0 16,16 z" style="fill:url(#linearGradient3832);fill-opacity:1;stroke:url(#linearGradient3834);stroke-opacity:1"/><rect style="opacity:.69999999999999996;fill:url(#pattern5774);fill-opacity:1;stroke:none;filter:url(#filter5796)" id="rect5404" width="256" height="256" x="0" y="0" transform="translate(0,796.36218)"/><rect style="fill:url(#radialGradient5806);fill-rule:evenodd;stroke:none;stroke-width:1px;stroke-linecap:butt;stroke-linejoin:miter;stroke-opacity:1;fill-opacity:1" id="rect2987" width="224" height="224" x="16" y="16" transform="translate(0,796.36218)"/><rect id="rect3836" width="208" height="208" x="24" y="24" transform="translate(0,796.36218)" style="fill:url(#Polkadots-large);fill-rule:evenodd;stroke:none;fill-opacity:1;opacity:.55000000000000004;filter:url(#filter5820)"/></g></svg>